<svg xmlns="http://www.w3.org/2000/svg" width="29" height="30" fill="none"><path fill="#45C9C1" d="M6.646 14.377c-3.606-.368-5.262-.736-6.219-.036-1.766 1.288 2.208 3.09 7.102 3.275 4.784.147 4.012-2.723-.883-3.239zm8.538 5.485c-1.656-1.067-3.79-1.14-4.232-.11-.552 1.324-1.067 7.764-.663 8.537.736 1.472 5.116 2.355 5.594 1.14.7-1.913.22-8.978-.7-9.567zM11.795.1c-1.73.294-2.281 9.125-.699 11.039 1.325 1.582 5.483 3.238 5.373-1.693C16.32 2.381 16.174-.6 11.795.1zm14.354 14.204c-1.767-.736-8.905-.699-9.163.074-.626 1.582 2.318 2.76 6.918 2.76 4.637 0 5.74-1.362 2.245-2.834z"/></svg>