<svg xmlns="http://www.w3.org/2000/svg" width="118" height="135" fill="none"><path fill="#FFDE70" d="M58.768 111.933c.179 2.668 6.304 2.001 26.112-2.758 20.965-5.051 25.416-6.924 24.121-9.845-1.83-3.994-50.41 8.279-50.233 12.603zM29.666 21.352c-7.966 1.216-8.801 2.732-11.571 20.937-2.88 18.801-2.737 22.328.742 23.109 6.315 1.389 8.674-3.369 13.397-26.462 3.474-17.04 3.312-18.481-2.568-17.584zm47.946 20.8c-5.718.797-7.64 2.245-13.429 10.019-17.086 23.123-31.107 38.313-20.005 36.54 4.536-.694 8.151-4.672 29.028-31.069 11.472-14.645 12.062-16.506 4.406-15.49z"/></svg>