<svg xmlns="http://www.w3.org/2000/svg" xml:space="preserve" id="Layer_1" width="300" height="110" x="0" y="0" version="1.1"><style>.st0{fill-rule:evenodd;clip-rule:evenodd;fill:#fff}</style><path d="M0 27.4h243.7V110H0z" class="st0"/><path fill="#0a1f41" fill-rule="evenodd" d="M1.3 28.7h241.2v80H1.3z" clip-rule="evenodd"/><path d="M17.1 44v48.5h11.7V62.4l17.4 30.1h11.6V44H45.9v28.2L29.2 44zm47.5-.1v48.6h38l-.1-10.7H76.7v-9.7h22.7V61.8H76.7v-7.1h24.7V43.9zm40.3 0 13.8 48.6h12.2l6.4-31.2 6.6 31.2h11L168.8 44l-12.5-.1-6.7 28.6-5.9-28.5-13-.1-5.5 27-6.3-27zm91.8 16s1.6-6-7.9-7c-6.5-.6-7.9 3.9-6.9 5.6 2 3.5 17.1 3.5 24.3 9.6 6.2 5.2 4.7 17.1-1.9 21.5-7.9 5.2-20.2 4.4-25.7 1.9-11-5-9.2-15.8-9.2-15.8H181s-.6 7.5 8.5 7.5c9.6 0 9.6-5 7.6-7-2.2-2.2-20.3-3-25.2-10.5-3.3-5-3.8-15 5-20.3 8.8-5.3 21.9-2.7 26.7 2.2 5.7 5.9 4.8 12.3 4.8 12.3h-11.7zM217 0h83l-.1 82.5h-82.8z" class="st0"/><path fill="#e02a26" fill-rule="evenodd" d="M218.3 1.3h80.4v80h-80.4z" clip-rule="evenodd"/><path d="M226.5 17.1h19.6v49.7h-11.7V28.6h-7.9zm53 22.6c3.1-2.2 5.4-4.8 5-10.9-.9-8.4-7.9-12.5-16.1-12.6-8.2-.1-14.6 4.9-15.8 12.3-1 6.4 3.1 10.1 5.1 11.2-3.9 2.1-7.5 7.7-6.8 13.8.7 5.7 6.6 14.3 17.8 14.1 10.3-.2 16.7-7.3 17.4-14 1.1-9.1-3.7-12.2-6.6-13.9zm-10.7-13.6c2.7 0 4.9 1.8 4.9 4.8 0 2.7-2.1 5.1-4.9 5.1-2.7 0-5-2-5-5.1.1-3.1 2.7-4.8 5-4.8zm.1 30.2c-3.2.1-5.7-2.7-5.8-5.8 0-3.3 2.3-5.7 5.7-5.7 3.2 0 5.6 2.6 5.6 5.7s-2.1 5.7-5.5 5.8z" class="st0"/></svg>